<svg width="325" height="325" viewBox="0 0 325 325" fill="none" xmlns="http://www.w3.org/2000/svg">
<path fill-rule="evenodd" clip-rule="evenodd" d="M200 50H125V125H50V200H125V275H200V200H275V125H200V50Z" fill="#698BF9"/>
<path fill-rule="evenodd" clip-rule="evenodd" d="M182 63H142V90.6962C110.288 99.4486 87 128.505 87 163C87 197.495 110.288 226.551 142 235.304V263H182V235.304C213.712 226.551 237 197.495 237 163C237 128.505 213.712 99.4486 182 90.6962V63ZM142 122.678C127.183 130.041 117 145.331 117 163C117 180.669 127.183 195.959 142 203.322V122.678ZM182 203.322V122.678C196.817 130.041 207 145.331 207 163C207 180.669 196.817 195.959 182 203.322Z" fill="#BACAFC"/>
<circle cx="162.5" cy="162.5" r="147.5" stroke="#516AF0" stroke-width="30"/>
</svg>
