<svg width="1057" height="276" viewBox="0 0 1057 276" fill="none" xmlns="http://www.w3.org/2000/svg">
<g filter="url(#filter0_d_28_14)">
<circle cx="138" cy="134" r="129" stroke="#516AF0" stroke-width="10" shape-rendering="crispEdges"/>
</g>
<mask id="path-2-outside-1_28_14" maskUnits="userSpaceOnUse" x="301" y="59" width="753" height="152" fill="black">
<rect fill="white" x="301" y="59" width="753" height="152"/>
<path d="M303.087 207V61.5455H363.172C374.062 61.5455 383.461 63.6761 391.368 67.9375C399.322 72.1515 405.454 78.0464 409.763 85.6222C414.071 93.1506 416.226 101.91 416.226 111.901C416.226 121.938 414.024 130.722 409.621 138.25C405.265 145.731 399.038 151.531 390.942 155.651C382.845 159.77 373.233 161.83 362.107 161.83H325.033V134.131H355.572C360.875 134.131 365.303 133.207 368.854 131.361C372.452 129.514 375.175 126.934 377.021 123.619C378.868 120.258 379.791 116.351 379.791 111.901C379.791 107.402 378.868 103.52 377.021 100.253C375.175 96.9384 372.452 94.3816 368.854 92.5824C365.255 90.7831 360.828 89.8835 355.572 89.8835H338.243V207H303.087ZM433.555 207V61.5455H468.712V119.926H526.027V61.5455H561.112V207H526.027V148.548H468.712V207H433.555ZM618.321 61.5455V207H583.165V61.5455H618.321ZM640.391 207V61.5455H675.548V119.926H732.863V61.5455H767.948V207H732.863V148.548H675.548V207H640.391ZM877.998 61.5455H913.083V155.366C913.083 166.209 910.503 175.655 905.342 183.705C900.181 191.706 892.984 197.909 883.751 202.312C874.518 206.669 863.793 208.847 851.577 208.847C839.219 208.847 828.424 206.669 819.191 202.312C809.958 197.909 802.785 191.706 797.671 183.705C792.558 175.655 790.001 166.209 790.001 155.366V61.5455H825.157V152.312C825.157 157.331 826.246 161.806 828.424 165.736C830.649 169.666 833.751 172.743 837.728 174.969C841.705 177.194 846.322 178.307 851.577 178.307C856.833 178.307 861.426 177.194 865.356 174.969C869.333 172.743 872.434 169.666 874.66 165.736C876.885 161.806 877.998 157.331 877.998 152.312V61.5455ZM935.118 207V61.5455H995.771C1006.66 61.5455 1015.78 63.0843 1023.12 66.1619C1030.5 69.2396 1036.04 73.5483 1039.73 79.0881C1043.47 84.6278 1045.35 91.0436 1045.35 98.3352C1045.35 103.875 1044.19 108.823 1041.87 113.179C1039.54 117.488 1036.35 121.062 1032.28 123.903C1028.21 126.744 1023.49 128.733 1018.14 129.869V131.29C1024.01 131.574 1029.44 133.16 1034.41 136.048C1039.43 138.937 1043.45 142.961 1046.48 148.122C1049.51 153.236 1051.03 159.296 1051.03 166.304C1051.03 174.116 1049.04 181.1 1045.06 187.256C1041.08 193.364 1035.33 198.193 1027.8 201.744C1020.27 205.248 1011.14 207 1000.39 207H935.118ZM970.274 178.662H992.007C999.63 178.662 1005.24 177.218 1008.84 174.33C1012.49 171.441 1014.31 167.417 1014.31 162.256C1014.31 158.515 1013.43 155.295 1011.68 152.597C1009.93 149.85 1007.44 147.743 1004.22 146.276C1001 144.76 997.144 144.003 992.646 144.003H970.274V178.662ZM970.274 121.347H989.734C993.57 121.347 996.979 120.707 999.962 119.429C1002.94 118.151 1005.26 116.304 1006.92 113.889C1008.63 111.474 1009.48 108.562 1009.48 105.153C1009.48 100.277 1007.75 96.4413 1004.29 93.6477C1000.84 90.8542 996.174 89.4574 990.303 89.4574H970.274V121.347Z"/>
</mask>
<path d="M303.087 207V61.5455H363.172C374.062 61.5455 383.461 63.6761 391.368 67.9375C399.322 72.1515 405.454 78.0464 409.763 85.6222C414.071 93.1506 416.226 101.91 416.226 111.901C416.226 121.938 414.024 130.722 409.621 138.25C405.265 145.731 399.038 151.531 390.942 155.651C382.845 159.77 373.233 161.83 362.107 161.83H325.033V134.131H355.572C360.875 134.131 365.303 133.207 368.854 131.361C372.452 129.514 375.175 126.934 377.021 123.619C378.868 120.258 379.791 116.351 379.791 111.901C379.791 107.402 378.868 103.52 377.021 100.253C375.175 96.9384 372.452 94.3816 368.854 92.5824C365.255 90.7831 360.828 89.8835 355.572 89.8835H338.243V207H303.087ZM433.555 207V61.5455H468.712V119.926H526.027V61.5455H561.112V207H526.027V148.548H468.712V207H433.555ZM618.321 61.5455V207H583.165V61.5455H618.321ZM640.391 207V61.5455H675.548V119.926H732.863V61.5455H767.948V207H732.863V148.548H675.548V207H640.391ZM877.998 61.5455H913.083V155.366C913.083 166.209 910.503 175.655 905.342 183.705C900.181 191.706 892.984 197.909 883.751 202.312C874.518 206.669 863.793 208.847 851.577 208.847C839.219 208.847 828.424 206.669 819.191 202.312C809.958 197.909 802.785 191.706 797.671 183.705C792.558 175.655 790.001 166.209 790.001 155.366V61.5455H825.157V152.312C825.157 157.331 826.246 161.806 828.424 165.736C830.649 169.666 833.751 172.743 837.728 174.969C841.705 177.194 846.322 178.307 851.577 178.307C856.833 178.307 861.426 177.194 865.356 174.969C869.333 172.743 872.434 169.666 874.66 165.736C876.885 161.806 877.998 157.331 877.998 152.312V61.5455ZM935.118 207V61.5455H995.771C1006.66 61.5455 1015.78 63.0843 1023.12 66.1619C1030.5 69.2396 1036.04 73.5483 1039.73 79.0881C1043.47 84.6278 1045.35 91.0436 1045.35 98.3352C1045.35 103.875 1044.19 108.823 1041.87 113.179C1039.54 117.488 1036.35 121.062 1032.28 123.903C1028.21 126.744 1023.49 128.733 1018.14 129.869V131.29C1024.01 131.574 1029.44 133.16 1034.41 136.048C1039.43 138.937 1043.45 142.961 1046.48 148.122C1049.51 153.236 1051.03 159.296 1051.03 166.304C1051.03 174.116 1049.04 181.1 1045.06 187.256C1041.08 193.364 1035.33 198.193 1027.8 201.744C1020.27 205.248 1011.14 207 1000.39 207H935.118ZM970.274 178.662H992.007C999.63 178.662 1005.24 177.218 1008.84 174.33C1012.49 171.441 1014.31 167.417 1014.31 162.256C1014.31 158.515 1013.43 155.295 1011.68 152.597C1009.93 149.85 1007.44 147.743 1004.22 146.276C1001 144.76 997.144 144.003 992.646 144.003H970.274V178.662ZM970.274 121.347H989.734C993.57 121.347 996.979 120.707 999.962 119.429C1002.94 118.151 1005.26 116.304 1006.92 113.889C1008.63 111.474 1009.48 108.562 1009.48 105.153C1009.48 100.277 1007.75 96.4413 1004.29 93.6477C1000.84 90.8542 996.174 89.4574 990.303 89.4574H970.274V121.347Z" fill="#698BF9"/>
<path d="M303.087 207H301.087V209H303.087V207ZM303.087 61.5455V59.5455H301.087V61.5455H303.087ZM391.368 67.9375L390.419 69.6981L390.425 69.7015L390.432 69.7048L391.368 67.9375ZM409.763 85.6222L408.024 86.6109L408.027 86.6156L409.763 85.6222ZM409.621 138.25L407.894 137.24L407.892 137.244L409.621 138.25ZM390.942 155.651L391.849 157.433L391.849 157.433L390.942 155.651ZM325.033 161.83H323.033V163.83H325.033V161.83ZM325.033 134.131V132.131H323.033V134.131H325.033ZM368.854 131.361L367.941 129.581L367.931 129.586L368.854 131.361ZM377.021 123.619L378.768 124.593L378.774 124.582L377.021 123.619ZM377.021 100.253L375.274 101.226L375.28 101.237L377.021 100.253ZM368.854 92.5824L367.959 94.3712L367.959 94.3712L368.854 92.5824ZM338.243 89.8835V87.8835H336.243V89.8835H338.243ZM338.243 207V209H340.243V207H338.243ZM305.087 207V61.5455H301.087V207H305.087ZM303.087 63.5455H363.172V59.5455H303.087V63.5455ZM363.172 63.5455C373.801 63.5455 382.859 65.624 390.419 69.6981L392.317 66.1769C384.062 61.7283 374.323 59.5455 363.172 59.5455V63.5455ZM390.432 69.7048C398.062 73.747 403.91 79.3769 408.024 86.6109L411.501 84.6334C406.998 76.7159 400.583 70.556 392.304 66.1702L390.432 69.7048ZM408.027 86.6156C412.138 93.7982 414.226 102.205 414.226 111.901H418.226C418.226 101.615 416.005 92.5029 411.499 84.6287L408.027 86.6156ZM414.226 111.901C414.226 121.638 412.093 130.062 407.894 137.24L411.347 139.26C415.955 131.381 418.226 122.239 418.226 111.901H414.226ZM407.892 137.244C403.74 144.376 397.806 149.914 390.035 153.868L391.849 157.433C400.27 153.148 406.79 147.087 411.349 139.256L407.892 137.244ZM390.035 153.868C382.275 157.816 372.988 159.83 362.107 159.83V163.83C373.479 163.83 383.415 161.724 391.849 157.433L390.035 153.868ZM362.107 159.83H325.033V163.83H362.107V159.83ZM327.033 161.83V134.131H323.033V161.83H327.033ZM325.033 136.131H355.572V132.131H325.033V136.131ZM355.572 136.131C361.096 136.131 365.863 135.17 369.776 133.135L367.931 129.586C364.742 131.245 360.655 132.131 355.572 132.131V136.131ZM369.767 133.14C373.692 131.126 376.717 128.275 378.768 124.593L375.274 122.646C373.633 125.592 371.212 127.903 367.941 129.581L369.767 133.14ZM378.774 124.582C380.807 120.881 381.791 116.634 381.791 111.901H377.791C377.791 116.069 376.929 119.634 375.268 122.656L378.774 124.582ZM381.791 111.901C381.791 107.126 380.809 102.89 378.762 99.2687L375.28 101.237C376.926 104.149 377.791 107.679 377.791 111.901H381.791ZM378.768 99.2794C376.714 95.5919 373.683 92.7612 369.748 90.7935L367.959 94.3712C371.221 96.0021 373.635 98.285 375.274 101.226L378.768 99.2794ZM369.748 90.7935C365.8 88.8196 361.047 87.8835 355.572 87.8835V91.8835C360.609 91.8835 364.71 92.7467 367.959 94.3712L369.748 90.7935ZM355.572 87.8835H338.243V91.8835H355.572V87.8835ZM336.243 89.8835V207H340.243V89.8835H336.243ZM338.243 205H303.087V209H338.243V205ZM433.555 207H431.555V209H433.555V207ZM433.555 61.5455V59.5455H431.555V61.5455H433.555ZM468.712 61.5455H470.712V59.5455H468.712V61.5455ZM468.712 119.926H466.712V121.926H468.712V119.926ZM526.027 119.926V121.926H528.027V119.926H526.027ZM526.027 61.5455V59.5455H524.027V61.5455H526.027ZM561.112 61.5455H563.112V59.5455H561.112V61.5455ZM561.112 207V209H563.112V207H561.112ZM526.027 207H524.027V209H526.027V207ZM526.027 148.548H528.027V146.548H526.027V148.548ZM468.712 148.548V146.548H466.712V148.548H468.712ZM468.712 207V209H470.712V207H468.712ZM435.555 207V61.5455H431.555V207H435.555ZM433.555 63.5455H468.712V59.5455H433.555V63.5455ZM466.712 61.5455V119.926H470.712V61.5455H466.712ZM468.712 121.926H526.027V117.926H468.712V121.926ZM528.027 119.926V61.5455H524.027V119.926H528.027ZM526.027 63.5455H561.112V59.5455H526.027V63.5455ZM559.112 61.5455V207H563.112V61.5455H559.112ZM561.112 205H526.027V209H561.112V205ZM528.027 207V148.548H524.027V207H528.027ZM526.027 146.548H468.712V150.548H526.027V146.548ZM466.712 148.548V207H470.712V148.548H466.712ZM468.712 205H433.555V209H468.712V205ZM618.321 61.5455H620.321V59.5455H618.321V61.5455ZM618.321 207V209H620.321V207H618.321ZM583.165 207H581.165V209H583.165V207ZM583.165 61.5455V59.5455H581.165V61.5455H583.165ZM616.321 61.5455V207H620.321V61.5455H616.321ZM618.321 205H583.165V209H618.321V205ZM585.165 207V61.5455H581.165V207H585.165ZM583.165 63.5455H618.321V59.5455H583.165V63.5455ZM640.391 207H638.391V209H640.391V207ZM640.391 61.5455V59.5455H638.391V61.5455H640.391ZM675.548 61.5455H677.548V59.5455H675.548V61.5455ZM675.548 119.926H673.548V121.926H675.548V119.926ZM732.863 119.926V121.926H734.863V119.926H732.863ZM732.863 61.5455V59.5455H730.863V61.5455H732.863ZM767.948 61.5455H769.948V59.5455H767.948V61.5455ZM767.948 207V209H769.948V207H767.948ZM732.863 207H730.863V209H732.863V207ZM732.863 148.548H734.863V146.548H732.863V148.548ZM675.548 148.548V146.548H673.548V148.548H675.548ZM675.548 207V209H677.548V207H675.548ZM642.391 207V61.5455H638.391V207H642.391ZM640.391 63.5455H675.548V59.5455H640.391V63.5455ZM673.548 61.5455V119.926H677.548V61.5455H673.548ZM675.548 121.926H732.863V117.926H675.548V121.926ZM734.863 119.926V61.5455H730.863V119.926H734.863ZM732.863 63.5455H767.948V59.5455H732.863V63.5455ZM765.948 61.5455V207H769.948V61.5455H765.948ZM767.948 205H732.863V209H767.948V205ZM734.863 207V148.548H730.863V207H734.863ZM732.863 146.548H675.548V150.548H732.863V146.548ZM673.548 148.548V207H677.548V148.548H673.548ZM675.548 205H640.391V209H675.548V205ZM877.998 61.5455V59.5455H875.998V61.5455H877.998ZM913.083 61.5455H915.083V59.5455H913.083V61.5455ZM905.342 183.705L907.022 184.789L907.025 184.784L905.342 183.705ZM883.751 202.312L884.604 204.121L884.612 204.118L883.751 202.312ZM819.191 202.312L818.33 204.118L818.338 204.121L819.191 202.312ZM797.671 183.705L795.983 184.777L795.986 184.782L797.671 183.705ZM790.001 61.5455V59.5455H788.001V61.5455H790.001ZM825.157 61.5455H827.157V59.5455H825.157V61.5455ZM828.424 165.736L826.675 166.705L826.679 166.713L826.684 166.721L828.424 165.736ZM837.728 174.969L838.705 173.223L838.705 173.223L837.728 174.969ZM865.356 174.969L864.379 173.223L864.37 173.228L865.356 174.969ZM877.998 63.5455H913.083V59.5455H877.998V63.5455ZM911.083 61.5455V155.366H915.083V61.5455H911.083ZM911.083 155.366C911.083 165.879 908.586 174.94 903.658 182.625L907.025 184.784C912.42 176.371 915.083 166.539 915.083 155.366H911.083ZM903.661 182.621C898.716 190.287 891.814 196.251 882.89 200.507L884.612 204.118C894.154 199.567 901.645 193.125 907.022 184.789L903.661 182.621ZM882.897 200.504C873.979 204.712 863.555 206.847 851.577 206.847V210.847C864.031 210.847 875.057 208.626 884.604 204.121L882.897 200.504ZM851.577 206.847C839.453 206.847 828.96 204.71 820.044 200.504L818.338 204.121C827.888 208.627 838.985 210.847 851.577 210.847V206.847ZM820.052 200.507C811.129 196.252 804.253 190.29 799.356 182.628L795.986 184.782C801.316 193.123 808.787 199.566 818.33 204.118L820.052 200.507ZM799.359 182.632C794.476 174.946 792.001 165.883 792.001 155.366H788.001C788.001 166.536 790.639 176.365 795.983 184.777L799.359 182.632ZM792.001 155.366V61.5455H788.001V155.366H792.001ZM790.001 63.5455H825.157V59.5455H790.001V63.5455ZM823.157 61.5455V152.312H827.157V61.5455H823.157ZM823.157 152.312C823.157 157.63 824.314 162.445 826.675 166.705L830.173 164.766C828.178 161.167 827.157 157.033 827.157 152.312H823.157ZM826.684 166.721C829.091 170.973 832.458 174.312 836.751 176.714L838.705 173.223C835.044 171.175 832.208 168.359 830.164 164.75L826.684 166.721ZM836.751 176.714C841.07 179.131 846.033 180.307 851.577 180.307V176.307C846.611 176.307 842.34 175.258 838.705 173.223L836.751 176.714ZM851.577 180.307C857.121 180.307 862.065 179.131 866.341 176.709L864.37 173.228C860.787 175.258 856.545 176.307 851.577 176.307V180.307ZM866.332 176.714C870.626 174.312 873.993 170.973 876.4 166.721L872.919 164.75C870.876 168.359 868.04 171.175 864.379 173.223L866.332 176.714ZM876.4 166.721C878.814 162.458 879.998 157.638 879.998 152.312H875.998C875.998 157.025 874.956 161.153 872.919 164.75L876.4 166.721ZM879.998 152.312V61.5455H875.998V152.312H879.998ZM935.118 207H933.118V209H935.118V207ZM935.118 61.5455V59.5455H933.118V61.5455H935.118ZM1023.12 66.1619L1022.34 68.0063L1022.35 68.0081L1023.12 66.1619ZM1039.73 79.0881L1038.07 80.1975L1038.08 80.2073L1039.73 79.0881ZM1041.87 113.179L1043.63 114.127L1043.63 114.119L1041.87 113.179ZM1032.28 123.903L1031.13 122.263L1031.13 122.263L1032.28 123.903ZM1018.14 129.869L1017.73 127.913L1016.14 128.249V129.869H1018.14ZM1018.14 131.29H1016.14V133.195L1018.05 133.287L1018.14 131.29ZM1034.41 136.048L1033.4 137.778L1033.41 137.782L1034.41 136.048ZM1046.48 148.122L1044.76 149.135L1044.76 149.142L1046.48 148.122ZM1045.06 187.256L1046.74 188.347L1046.74 188.341L1045.06 187.256ZM1027.8 201.744L1028.65 203.558L1028.66 203.553L1027.8 201.744ZM970.274 178.662H968.274V180.662H970.274V178.662ZM1008.84 174.33L1007.6 172.762L1007.59 172.77L1008.84 174.33ZM1011.68 152.597L1009.99 153.672L1010 153.679L1010 153.686L1011.68 152.597ZM1004.22 146.276L1003.37 148.085L1003.38 148.09L1003.39 148.095L1004.22 146.276ZM970.274 144.003V142.003H968.274V144.003H970.274ZM970.274 121.347H968.274V123.347H970.274V121.347ZM1006.92 113.889L1005.29 112.736L1005.28 112.747L1005.27 112.758L1006.92 113.889ZM1004.29 93.6477L1005.55 92.0922L1005.55 92.0922L1004.29 93.6477ZM970.274 89.4574V87.4574H968.274V89.4574H970.274ZM937.118 207V61.5455H933.118V207H937.118ZM935.118 63.5455H995.771V59.5455H935.118V63.5455ZM995.771 63.5455C1006.49 63.5455 1015.32 65.0617 1022.34 68.0063L1023.89 64.3175C1016.23 61.1068 1006.84 59.5455 995.771 59.5455V63.5455ZM1022.35 68.0081C1029.44 70.965 1034.64 75.0476 1038.07 80.1975L1041.4 77.9787C1037.45 72.049 1031.56 67.5142 1023.88 64.3158L1022.35 68.0081ZM1038.08 80.2073C1041.57 85.3864 1043.35 91.4045 1043.35 98.3352H1047.35C1047.35 90.6826 1045.38 83.8693 1041.39 77.9689L1038.08 80.2073ZM1043.35 98.3352C1043.35 103.588 1042.25 108.206 1040.1 112.239L1043.63 114.119C1046.12 109.44 1047.35 104.162 1047.35 98.3352H1043.35ZM1040.1 112.231C1037.93 116.26 1034.95 119.599 1031.13 122.263L1033.42 125.544C1037.75 122.526 1041.16 118.716 1043.63 114.127L1040.1 112.231ZM1031.13 122.263C1027.3 124.936 1022.84 126.826 1017.73 127.913L1018.56 131.826C1024.14 130.639 1029.11 128.553 1033.42 125.544L1031.13 122.263ZM1016.14 129.869V131.29H1020.14V129.869H1016.14ZM1018.05 133.287C1023.61 133.556 1028.71 135.054 1033.4 137.778L1035.41 134.319C1030.16 131.266 1024.42 129.591 1018.24 129.292L1018.05 133.287ZM1033.41 137.782C1038.12 140.491 1041.9 144.263 1044.76 149.135L1048.21 147.109C1045.01 141.66 1040.74 137.382 1035.41 134.315L1033.41 137.782ZM1044.76 149.142C1047.58 153.895 1049.03 159.59 1049.03 166.304H1053.03C1053.03 159.002 1051.45 152.576 1048.2 147.103L1044.76 149.142ZM1049.03 166.304C1049.03 173.758 1047.14 180.36 1043.38 186.17L1046.74 188.341C1050.94 181.841 1053.03 174.475 1053.03 166.304H1049.03ZM1043.39 186.164C1039.64 191.919 1034.19 196.52 1026.95 199.935L1028.66 203.553C1036.47 199.867 1042.53 194.808 1046.74 188.347L1043.39 186.164ZM1026.96 199.931C1019.76 203.281 1010.93 205 1000.39 205V209C1011.34 209 1020.79 207.215 1028.65 203.558L1026.96 199.931ZM1000.39 205H935.118V209H1000.39V205ZM970.274 180.662H992.007V176.662H970.274V180.662ZM992.007 180.662C999.812 180.662 1005.97 179.196 1010.09 175.889L1007.59 172.77C1004.51 175.239 999.448 176.662 992.007 176.662V180.662ZM1010.08 175.897C1014.26 172.585 1016.31 167.951 1016.31 162.256H1012.31C1012.31 166.882 1010.71 170.298 1007.6 172.762L1010.08 175.897ZM1016.31 162.256C1016.31 158.193 1015.35 154.581 1013.36 151.508L1010 153.686C1011.51 156.01 1012.31 158.837 1012.31 162.256H1016.31ZM1013.37 151.521C1011.39 148.421 1008.59 146.069 1005.05 144.456L1003.39 148.095C1006.29 149.417 1008.47 151.28 1009.99 153.672L1013.37 151.521ZM1005.07 144.466C1001.53 142.797 997.363 142.003 992.646 142.003V146.003C996.925 146.003 1000.48 146.724 1003.37 148.085L1005.07 144.466ZM992.646 142.003H970.274V146.003H992.646V142.003ZM968.274 144.003V178.662H972.274V144.003H968.274ZM970.274 123.347H989.734V119.347H970.274V123.347ZM989.734 123.347C993.792 123.347 997.477 122.67 1000.75 121.267L999.174 117.591C996.481 118.745 993.347 119.347 989.734 119.347V123.347ZM1000.75 121.267C1004.04 119.856 1006.68 117.781 1008.57 115.021L1005.27 112.758C1003.85 114.827 1001.85 116.445 999.174 117.591L1000.75 121.267ZM1008.56 115.043C1010.53 112.241 1011.48 108.91 1011.48 105.153H1007.48C1007.48 108.215 1006.72 110.708 1005.29 112.736L1008.56 115.043ZM1011.48 105.153C1011.48 99.7395 1009.53 95.3057 1005.55 92.0922L1003.04 95.2032C1005.97 97.5768 1007.48 100.814 1007.48 105.153H1011.48ZM1005.55 92.0922C1001.64 88.9302 996.484 87.4574 990.303 87.4574V91.4574C995.864 91.4574 1000.04 92.7781 1003.04 95.2032L1005.55 92.0922ZM990.303 87.4574H970.274V91.4574H990.303V87.4574ZM968.274 89.4574V121.347H972.274V89.4574H968.274Z" fill="#18193F" mask="url(#path-2-outside-1_28_14)"/>
<mask id="path-4-inside-2_28_14" fill="white">
<path fill-rule="evenodd" clip-rule="evenodd" d="M168 34H108V104H38V164H108V234H168V164H238V104H168V34Z"/>
</mask>
<path fill-rule="evenodd" clip-rule="evenodd" d="M168 34H108V104H38V164H108V234H168V164H238V104H168V34Z" fill="#698BF9"/>
<path d="M108 34V32H106V34H108ZM168 34H170V32H168V34ZM108 104V106H110V104H108ZM38 104V102H36V104H38ZM38 164H36V166H38V164ZM108 164H110V162H108V164ZM108 234H106V236H108V234ZM168 234V236H170V234H168ZM168 164V162H166V164H168ZM238 164V166H240V164H238ZM238 104H240V102H238V104ZM168 104H166V106H168V104ZM108 36H168V32H108V36ZM110 104V34H106V104H110ZM38 106H108V102H38V106ZM40 164V104H36V164H40ZM108 162H38V166H108V162ZM110 234V164H106V234H110ZM168 232H108V236H168V232ZM166 164V234H170V164H166ZM238 162H168V166H238V162ZM236 104V164H240V104H236ZM168 106H238V102H168V106ZM166 34V104H170V34H166Z" fill="#1F2961" mask="url(#path-4-inside-2_28_14)"/>
<mask id="path-6-inside-3_28_14" fill="white">
<path fill-rule="evenodd" clip-rule="evenodd" d="M147 55H127V77.9565C100.258 82.891 80 106.33 80 134.5C80 162.67 100.258 186.109 127 191.044V213H147V191.219C174.236 186.691 195 163.02 195 134.5C195 105.98 174.236 82.3091 147 77.7811V55ZM127 98.4898C111.4 103.031 100 117.434 100 134.5C100 151.566 111.4 165.969 127 170.51V98.4898ZM147 170.786V98.2138C163.111 102.42 175 117.072 175 134.5C175 151.928 163.111 166.58 147 170.786Z"/>
</mask>
<path fill-rule="evenodd" clip-rule="evenodd" d="M147 55H127V77.9565C100.258 82.891 80 106.33 80 134.5C80 162.67 100.258 186.109 127 191.044V213H147V191.219C174.236 186.691 195 163.02 195 134.5C195 105.98 174.236 82.3091 147 77.7811V55ZM127 98.4898C111.4 103.031 100 117.434 100 134.5C100 151.566 111.4 165.969 127 170.51V98.4898ZM147 170.786V98.2138C163.111 102.42 175 117.072 175 134.5C175 151.928 163.111 166.58 147 170.786Z" fill="#BACAFC"/>
<path d="M127 55V53H125V55H127ZM147 55H149V53H147V55ZM127 77.9565L127.363 79.9233L129 79.6212V77.9565H127ZM127 191.044H129V189.379L127.363 189.077L127 191.044ZM127 213H125V215H127V213ZM147 213V215H149V213H147ZM147 191.219L146.672 189.246L145 189.524V191.219H147ZM147 77.7811H145V79.476L146.672 79.754L147 77.7811ZM127 98.4898H129V95.8247L126.441 96.5695L127 98.4898ZM127 170.51L126.441 172.43L129 173.175V170.51H127ZM147 98.2138L147.505 96.2787L145 95.6246V98.2138H147ZM147 170.786H145V173.375L147.505 172.721L147 170.786ZM127 57H147V53H127V57ZM129 77.9565V55H125V77.9565H129ZM126.637 75.9897C98.9633 81.096 78 105.348 78 134.5H82C82 107.312 101.552 84.6859 127.363 79.9233L126.637 75.9897ZM78 134.5C78 163.652 98.9633 187.904 126.637 193.01L127.363 189.077C101.552 184.314 82 161.688 82 134.5H78ZM129 213V191.044H125V213H129ZM147 211H127V215H147V211ZM145 191.219V213H149V191.219H145ZM147.328 193.192C175.513 188.506 197 164.014 197 134.5H193C193 162.026 172.959 184.876 146.672 189.246L147.328 193.192ZM197 134.5C197 104.986 175.513 80.494 147.328 75.8082L146.672 79.754C172.959 84.1243 193 106.974 193 134.5H197ZM145 55V77.7811H149V55H145ZM126.441 96.5695C110.01 101.352 98 116.521 98 134.5H102C102 118.347 112.79 104.709 127.559 100.41L126.441 96.5695ZM98 134.5C98 152.479 110.01 167.648 126.441 172.43L127.559 168.59C112.79 164.291 102 150.653 102 134.5H98ZM129 170.51V98.4898H125V170.51H129ZM145 98.2138V170.786H149V98.2138H145ZM177 134.5C177 116.139 164.474 100.709 147.505 96.2787L146.495 100.149C161.747 104.131 173 118.004 173 134.5H177ZM147.505 172.721C164.474 168.291 177 152.861 177 134.5H173C173 150.996 161.747 164.869 146.495 168.851L147.505 172.721Z" fill="#1F2961" mask="url(#path-6-inside-3_28_14)"/>
<defs>
<filter id="filter0_d_28_14" x="0" y="0" width="276" height="276" filterUnits="userSpaceOnUse" color-interpolation-filters="sRGB">
<feFlood flood-opacity="0" result="BackgroundImageFix"/>
<feColorMatrix in="SourceAlpha" type="matrix" values="0 0 0 0 0 0 0 0 0 0 0 0 0 0 0 0 0 0 127 0" result="hardAlpha"/>
<feOffset dy="4"/>
<feGaussianBlur stdDeviation="2"/>
<feComposite in2="hardAlpha" operator="out"/>
<feColorMatrix type="matrix" values="0 0 0 0 0.729412 0 0 0 0 0.792157 0 0 0 0 0.988235 0 0 0 1 0"/>
<feBlend mode="normal" in2="BackgroundImageFix" result="effect1_dropShadow_28_14"/>
<feBlend mode="normal" in="SourceGraphic" in2="effect1_dropShadow_28_14" result="shape"/>
</filter>
</defs>
</svg>
